<svg width="126" height="45" viewBox="0 0 126 45" fill="none" xmlns="http://www.w3.org/2000/svg">
<path d="M45.2837 15.0614L39.2572 25.956C38.9001 26.603 38.2202 27.0036 37.4813 27.0036H35.5227V15.0614H32.5436V28.1019C32.5436 29.1413 33.3874 29.9851 34.4268 29.9851H37.4836C39.3055 29.9851 40.9859 28.994 41.8674 27.4008L48.6929 15.0614H45.2837Z" fill="#9BF9A4"/>
<path d="M71.4591 15.0614C68.6921 15.0614 66.4496 17.304 66.4496 20.0709V29.9851H69.4287V20.0709C69.4287 18.9502 70.3372 18.0452 71.4591 18.0452H75.8547L77.5045 15.0614H71.4591Z" fill="#9BF9A4"/>
<path d="M110.168 29.9851H107.189V28.1102L105.232 29.2686C104.442 29.7364 103.542 29.9851 102.622 29.9851H100.253C97.486 29.9851 95.2435 27.7425 95.2435 24.9756V20.0709C95.2435 17.304 97.486 15.0614 100.253 15.0614H108.284C109.323 15.0614 110.167 15.9052 110.167 16.9445V29.9851H110.168ZM100.254 18.0452C99.1335 18.0452 98.2237 18.9502 98.2237 20.0709V24.9756C98.2237 26.0962 99.1323 27.006 100.254 27.006H102.623C103.007 27.006 103.383 26.9035 103.713 26.7079L107.188 24.648V18.0452H100.254Z" fill="#9BF9A4"/>
<path d="M89.614 10.9597V15.0618H82.6813C79.9143 15.0618 77.6718 17.3043 77.6718 20.0713V24.9759C77.6718 27.7429 79.9143 29.9855 82.6813 29.9855H85.0499C85.9691 29.9855 86.8706 29.738 87.6602 29.269L89.6175 28.1106V29.9855H92.5966V10.9597H89.614ZM89.614 24.6483L86.1388 26.7082C85.8088 26.9039 85.4329 27.0064 85.0487 27.0064H82.6801C81.5594 27.0064 80.6497 26.0978 80.6497 24.9759V20.0713C80.6497 18.9506 81.5582 18.0456 82.6801 18.0456H89.6128V24.6483H89.614Z" fill="#9BF9A4"/>
<path d="M63.7956 29.9851H60.8166V28.1102L58.8592 29.2686C58.0696 29.7364 57.1693 29.9851 56.249 29.9851H53.8803C51.1133 29.9851 48.8708 27.7425 48.8708 24.9756V20.0709C48.8708 17.304 51.1133 15.0614 53.8803 15.0614H61.9113C62.9507 15.0614 63.7945 15.9052 63.7945 16.9445V29.9851H63.7956ZM53.8815 18.0452C52.7608 18.0452 51.851 18.9502 51.851 20.0709V24.9756C51.851 26.0962 52.7596 27.006 53.8815 27.006H56.2501C56.6343 27.006 57.0102 26.9035 57.3402 26.7079L60.8154 24.648V18.0452H53.8815Z" fill="#9BF9A4"/>
<path d="M29.8899 29.9851H26.9108V28.1102L24.9534 29.2686C24.1639 29.7364 23.2635 29.9851 22.3432 29.9851H19.9745C17.2087 29.9851 14.9662 27.7437 14.9662 24.9756V20.0709C14.9662 17.304 17.2087 15.0614 19.9757 15.0614H28.0067C29.0461 15.0614 29.8899 15.9052 29.8899 16.9445V29.9851ZM19.9757 18.0452C18.855 18.0452 17.9453 18.9502 17.9453 20.0709V24.9756C17.9453 26.0962 18.8538 27.006 19.9757 27.006H22.3444C22.7285 27.006 23.1044 26.9035 23.4344 26.7079L26.9096 24.648V18.0452H19.9757Z" fill="#9BF9A4"/>
</svg>
