<svg viewBox="0 0 145.3 271.92707774798924" style="max-height: 500px" xmlns="http://www.w3.org/2000/svg" width="145.3" height="271.92707774798924">
  <path d="M 120.9 39.9 C 131 39.9 139.1 31.7 139.1 21.7 C 139.1 11.7 131 3.4 120.9 3.4 C 110.80000000000001 3.4 102.7 11.6 102.7 21.599999999999998 C 102.7 31.599999999999994 110.8 39.9 120.9 39.9 Z"></path>
  <path d="M 99.7 161.8 C 95.5 166.3 88.1 166.3 88 166.3 L 55.8 166.3 C 55.7 166.3 48.3 166.2 44.1 161.8 C 41.9 159.5 40.9 156.2 41.2 152.1 L 41.2 85 C 41.2 81.6 42.2 78.8 44.1 76.8 C 47.6 73.1 53.3 72.4 55.2 72.3 L 88.6 72.3 C 90.3 72.4 96.2 73 99.8 76.8 C 101.7 78.8 102.7 81.6 102.7 85 L 102.7 152.1 C 102.9 156.2 101.9 159.5 99.7 161.8 Z M 120.8 68.5 L 120.6 68.5 C 119.5 68.6 111.7 68.6 108 60.8 C 108 60.8 108 60.7 107.9 60.7 C 107.8 60.5 107.7 60.2 107.6 60 C 107.6 59.9 107.5 59.8 107.5 59.7 C 107.4 59.5 107.4 59.3 107.3 59.1 C 107.2 59 107.2 58.8 107.1 58.6 C 107 58.4 107 58.3 107 58.1 C 106.9 57.9 106.9 57.7 106.8 57.4 C 106.8 57.3 106.7 57.2 106.7 57 C 106.6 56.7 106.6 56.4 106.5 56.1 L 106.5 55.9 C 106.4 55.5 106.4 55.2 106.3 54.8 C 106.3 54.5 106.2 54.1 106.2 53.8 C 106.1 46.5 101.8 40.2 95.5 37.4 C 95.5 37.4 92.6 36 89.9 35.9 C 89.5 35.9 88.5 35.8 88.3 35.8 L 55.8 35.8 C 45.8 35.8 37.7 43.9 37.7 53.8 C 36.3 68.6 24.6 68.5 23.3 68.4 L 23.1 68.4 C 13.1 68.4 5 76.5 5 86.5 L 5 151.7 C 5 161.7 13.1 169.8 23.1 169.8 L 23.3 169.8 C 25 169.8 35.3 169.6 37.5 182.6 L 37.5 184.4 C 36 199.5 25.2 198.7 22.9 199 L 22.7 199 C 12 199.3 4.6 207.1 4.6 217.1 C 4.6 227.1 12.7 235.2 22.7 235.2 L 23.8 235.2 C 26.8 235.3 36.1 236.8 37.3 249.8 C 37.4 258.2 43.1 265.2 50.9 267.2 C 51.1 267.2 51.3 267.3 51.4 267.3 C 51.7 267.4 52 267.4 52.3 267.5 C 53.4 267.7 54.5 267.9 55.6 267.9 L 88 267.9 C 97.9 267.9 106.1 259.8 106.1 249.9 C 107.5 235.1 119.2 235.2 120.5 235.3 L 120.7 235.3 C 130.7 235.3 138.8 227.2 138.8 217.2 C 138.8 207.2 130.7 199.1 120.7 199.1 C 110.7 199.1 102.6 207.2 102.6 217.2 L 102.6 217.4 C 102.9 221.5 101.9 224.8 99.7 227.1 C 96.3 230.7 90.8 231.5 88.8 231.6 L 55.5 231.6 C 55.4 231.6 48 231.5 43.8 227.1 C 41.6 224.8 40.9 221.5 40.9 217.4 L 40.9 214.7 C 41.1 211.7 42.1 209.2 43.8 207.4 C 47.2 203.8 52.7 202.6 54.7 202.4 L 88 202.4 C 98 202.4 106.1 194.7 106.1 184.8 C 107.5 170 119.2 170.1 120.5 170.2 L 120.7 170.2 C 130.7 170.2 138.8 162.1 138.8 152.1 L 138.8 86.7 C 138.9 76.7 130.8 68.5 120.8 68.5 Z"></path>
</svg>