<svg width="72" height="72" viewBox="5 5.295 72 72" fill="none"
	xmlns="http://www.w3.org/2000/svg">
	<style type="text/css">
	.fillBlack{fill:#000000;}
	</style>

	<!-- O ring (outer + inner circle must stay combined for cutout) -->
	<path class="fillBlack" d="M76.2,41.295
	c0,19.5-15.8,35.3-35.3,35.3s-35.3-15.8-35.3-35.3s15.8-35.4,35.3-35.4C60.5,5.895,76.2,21.795,76.2,41.295z
	M71.5,41.295
	c0-16.9-13.7-30.6-30.6-30.6s-30.6,13.7-30.6,30.6s13.7,30.6,30.6,30.6C57.9,71.895,71.6,58.195,71.5,41.295z"/>

	<!-- Right inner wedge -->
	<path class="fillBlack" d="M62,28.295l-19.5,27.9h20.4l-0.1-23.544C62.8,29.93,62,28.295,62,28.295z"/>

	<!-- Left inner wedge -->
	<path class="fillBlack" d="M29.8,21.995c-5.712,0-11.3,4.39-11.3,12.13v22.17l20.4-29.4
	C38.7,26.695,36.302,21.995,29.8,21.995z"/>

	<!-- Middle chevron -->
	<path class="fillBlack" d="M52.1,21.995c-6.789,0-8.6,3.5-12.048,8.42c-3.6,5.1-11.152,16.08-18.052,25.88h16.5
	l21.5-30.6C59.9,25.595,57.344,21.995,52.1,21.995z"/>
</svg>