<?xml version="1.0" encoding="utf-8"?>
<!-- Generator: Adobe Illustrator 28.1.0, SVG Export Plug-In . SVG Version: 6.00 Build 0)  -->
<svg version="1.1" id="Layer_1"
	xmlns="http://www.w3.org/2000/svg"
	xmlns:xlink="http://www.w3.org/1999/xlink" x="0px" y="0px" viewBox="0 0 280.89 82.4" style="enable-background:new 0 0 280.89 82.4;" xml:space="preserve">
	<style type="text/css">
	.st0{fill:#000000;}
	</style>
	<path class="st0" d="M106.44,27.9h5.2v24h-4.4V35.3l-6.7,13.2h-3.4l-6.7-13.2v16.6h-4.4v-24h5.2l7.7,15.2L106.44,27.9z M130.34,38.7
	c0.7,1.3,1.1,2.8,1.1,4.6c0,1.7-0.3,3.3-1.1,4.6c-0.7,1.3-1.8,2.3-3.1,3.1c-1.3,0.7-2.8,1.1-4.4,1.1c-1.6,0-3.1-0.3-4.4-1.1
	c-1.3-0.7-2.3-1.8-3.1-3.1c-0.7-1.3-1.1-2.8-1.1-4.6c0-1.7,0.4-3.3,1.2-4.6c0.7-1.3,1.8-2.3,3.1-3.1c1.3-0.7,2.8-1.1,4.4-1.1
	c1.6,0,3.1,0.3,4.4,1.1C128.64,36.4,129.64,37.4,130.34,38.7z M127.04,43.4c0-1.7-0.5-2.9-1.3-3.8c-0.8-0.9-1.8-1.3-2.9-1.3
	c-1.2,0-2.2,0.4-3,1.3c-0.9,0.8-1.3,2.1-1.3,3.8s0.5,2.9,1.3,3.8c0.9,0.9,1.9,1.3,3,1.3c1.2,0,2.2-0.4,3-1.3
	C126.74,46.3,127.14,45.1,127.04,43.4z M143.74,34.5c-1.3,0-2.5,0.3-3.5,0.9c-1,0.6-1.8,1.4-2.3,2.4l-0.3-2.9h-3.9v17h4.4v-8.8
	c0-1.6,0.4-2.8,1.2-3.6c0.8-0.9,1.8-1.3,3-1.3c1.3,0,2.2,0.4,2.8,1.2s0.9,1.9,0.9,3.4V52h4.4v-9.6c0-2.6-0.6-4.5-1.7-5.8
	C147.54,35.1,145.84,34.5,143.74,34.5z M153.24,51.9h4.4v-17h-4.4V51.9z M155.44,27.2c-0.8,0-1.5,0.2-2,0.7s-0.8,1.1-0.8,1.8
	c0,0.7,0.3,1.3,0.8,1.8s1.2,0.7,2,0.7s1.5-0.2,2-0.7s0.8-1.1,0.8-1.8c0-0.7-0.3-1.3-0.8-1.8C156.94,27.4,156.24,27.2,155.44,27.2z
	 M166.44,30.3h-3.9l-0.5,4.6h-2.9v3.7h2.9V46c0,2.2,0.5,3.8,1.6,4.6c1.1,0.9,2.5,1.3,4.3,1.3h3v-3.7h-2.1c-0.9,0-1.5-0.2-1.8-0.5
	c-0.4-0.3-0.5-0.9-0.5-1.7v-7.4h4.6v-3.7h-4.6v-4.6C166.54,30.3,166.44,30.3,166.44,30.3z M188.14,38.7c0.7,1.3,1.1,2.8,1.1,4.6
	c0,1.7-0.3,3.3-1.1,4.6c-0.7,1.3-1.8,2.3-3.1,3.1c-1.3,0.7-2.8,1.1-4.4,1.1c-1.6,0-3.1-0.3-4.4-1.1c-1.3-0.7-2.3-1.8-3.1-3.1
	c-0.7-1.3-1.1-2.8-1.1-4.6c0-1.7,0.4-3.3,1.2-4.6c0.7-1.3,1.8-2.3,3.1-3.1c1.3-0.7,2.8-1.1,4.4-1.1c1.6,0,3.1,0.3,4.4,1.1
	C186.44,36.4,187.54,37.4,188.14,38.7z M184.84,43.4c0-1.7-0.5-2.9-1.3-3.8c-0.8-0.9-1.8-1.3-2.9-1.3c-1.2,0-2.2,0.4-3,1.3
	c-0.9,0.8-1.3,2.1-1.3,3.8s0.5,2.9,1.3,3.8c0.9,0.9,1.9,1.3,3,1.3c1.2,0,2.2-0.4,3-1.3C184.54,46.3,184.94,45.1,184.84,43.4z
	 M195.94,38.1l-0.4-3.2h-3.9v17h4.4v-7.7c0-1.3,0.2-2.3,0.6-3.1c0.4-0.7,1-1.2,1.8-1.5s1.6-0.4,2.6-0.4h1.2v-4.6
	c-1.4,0-2.7,0.3-3.8,1C197.34,36.1,196.54,37,195.94,38.1z M210.04,51.9h15.7v-3.5h-11.3v-7h10.3V38h-10.3v-6.6h11.3v-3.5h-15.7
	V51.9z M240.84,41.9l5,10h-5l-4.5-9.5h-3.6v9.5h-4.4v-24h8.8c1.9,0,3.5,0.3,4.7,1c1.3,0.6,2.2,1.5,2.8,2.6c0.6,1.1,0.9,2.4,0.9,3.7
	c0,1.5-0.3,2.8-1.1,4C243.74,40.4,242.54,41.3,240.84,41.9z M241.24,35.3c0-1.1-0.3-2-1-2.7c-0.7-0.7-1.8-1-3.3-1h-4.1v7.6h4.1
	c1.4,0,2.5-0.4,3.2-1.1C240.84,37.4,241.14,36.5,241.24,35.3z M264.64,31.3c0.6,1.1,0.9,2.4,0.9,3.8s-0.3,2.6-0.9,3.7
	c-0.6,1.1-1.5,2-2.8,2.7c-1.2,0.7-2.8,1-4.8,1h-4.5v9.3h-4.4v-24h8.9c2,0,3.5,0.4,4.8,1C263.14,29.5,264.04,30.4,264.64,31.3z
	 M261.14,35.2c0-1.2-0.3-2.1-1-2.8c-0.7-0.7-1.8-1-3.3-1h-4.2V39h4.2c1.5,0,2.6-0.3,3.3-1S261.14,36.4,261.14,35.2z M76.2,41.295
	c0,19.5-15.8,35.3-35.3,35.3s-35.3-15.8-35.3-35.3s15.8-35.4,35.3-35.4C60.5,5.895,76.2,21.795,76.2,41.295z M71.5,41.295
	c0-16.9-13.7-30.6-30.6-30.6s-30.6,13.7-30.6,30.6s13.7,30.6,30.6,30.6C57.9,71.895,71.6,58.195,71.5,41.295z M62,28.295l-19.5,27.9
	h20.4l-0.1-23.544C62.8,29.93,62,28.295,62,28.295z M29.8,21.995c-5.712,0-11.3,4.39-11.3,12.13v22.17l20.4-29.4
	C38.7,26.695,36.302,21.995,29.8,21.995z M52.1,21.995c-6.789,0-8.6,3.5-12.048,8.42c-3.6,5.1-11.152,16.08-18.052,25.88h16.5
	l21.5-30.6C59.9,25.595,57.344,21.995,52.1,21.995z"/>
</svg>
